<svg viewBox="0 0 1100 1100" version="1.1" xmlns="http://www.w3.org/2000/svg">
  <path d="M929.047273 5.920582H89.367273C50.269091 5.920582 18.618182 37.571491 18.618182 74.807855v875.054545c0 39.098182 31.650909 68.887273 70.749091 68.887273H930.909091c39.098182 0 70.749091-31.650909 70.749091-68.887273v-875.054545c-1.861818-37.236364-33.512727-68.887273-72.610909-68.887273m0 63.301818c3.723636 0 5.585455 1.861818 5.585454 5.585455v875.054545c0 3.723636-1.861818 5.585455-5.585454 5.585455H89.367273c-3.723636 0-5.585455-1.861818-5.585455-5.585455v-875.054545c0-3.723636 1.861818-5.585455 5.585455-5.585455h839.68"></path>
  <path d="M837.818182 264.378182H577.163636c-18.618182 0-35.374545-14.894545-35.374545-35.374546s14.894545-35.374545 35.374545-35.374545h260.654546c18.618182 0 35.374545 14.894545 35.374545 35.374545s-16.756364 35.374545-35.374545 35.374546M837.818182 461.730909H577.163636c-18.618182 0-35.374545-14.894545-35.374545-35.374545S556.683636 390.981818 577.163636 390.981818h260.654546c18.618182 0 35.374545 14.894545 35.374545 35.374546s-16.756364 35.374545-35.374545 35.374545M837.818182 657.221818H191.767273c-18.618182 0-35.374545-14.894545-35.374546-35.374545s14.894545-35.374545 35.374546-35.374546H837.818182c18.618182 0 35.374545 14.894545 35.374545 35.374546s-16.756364 35.374545-35.374545 35.374545"></path>
  <path d="M837.818182 852.712727H191.767273c-18.618182 0-35.374545-14.894545-35.374546-35.374545 0-18.618182 14.894545-35.374545 35.374546-35.374546H837.818182c18.618182 0 35.374545 14.894545 35.374545 35.374546 0 20.48-16.756364 35.374545-35.374545 35.374545M156.392727 340.712727c0 80.058182 65.163636 145.221818 147.083637 145.221818s147.083636-65.163636 147.083636-145.221818-65.163636-145.221818-147.083636-145.221818-147.083636 65.163636-147.083637 145.221818"></path>
</svg>