<svg viewBox="0 0 1025 1024"><path d="M929.792 700.444444h-60.017778v-155.562666h-320v-102.200889h264.448a17.834667 17.834667 0 0 0 17.777778-17.806222V131.584A17.834667 17.834667 0 0 0 814.222222 113.777778H209.777778a17.834667 17.834667 0 0 0-17.777778 17.777778v293.347555c0 9.756444 7.992889 17.749333 17.777778 17.749333h264.448v102.229334H154.225778v155.562666h-60.017778a8.903111 8.903111 0 0 0-8.874667 8.903112v195.555555c0 4.864 3.982222 8.874667 8.903111 8.874667h195.527112c4.892444 0 8.903111-3.982222 8.903111-8.903111v-195.555556a8.903111 8.903111 0 0 0-8.903111-8.874667H229.802667v-80.014222h244.451555v80.014222h-60.017778a8.903111 8.903111 0 0 0-8.874666 8.903112v195.555555c0 4.864 3.982222 8.874667 8.903111 8.874667h195.527111c4.892444 0 8.903111-3.982222 8.903111-8.903111v-195.555556a8.903111 8.903111 0 0 0-8.903111-8.874667h-59.989333v-80.014222h244.451555v80.014222h-60.017778a8.903111 8.903111 0 0 0-8.874666 8.903112v195.555555c0 4.864 3.982222 8.874667 8.903111 8.874667h195.555555c4.864 0 8.874667-3.982222 8.874667-8.903111v-195.555556a8.903111 8.903111 0 0 0-8.903111-8.874667zM227.555556 839.68a2.986667 2.986667 0 0 1-2.986667 2.986667H159.345778a2.986667 2.986667 0 0 1-3.015111-2.986667v-65.223111c0-1.678222 1.336889-3.015111 3.015111-3.015111h65.223111c1.649778 0 2.986667 1.336889 2.986667 3.015111v65.223111z m320 0a2.986667 2.986667 0 0 1-2.986667 2.986667h-65.223111a2.986667 2.986667 0 0 1-3.015111-2.986667v-65.223111c0-1.678222 1.336889-3.015111 3.015111-3.015111h65.223111c1.649778 0 2.986667 1.336889 2.986667 3.015111v65.223111z m-284.444445-468.110222V184.888889h497.777778v186.680889H263.111111zM867.555556 839.68a2.986667 2.986667 0 0 1-2.986667 2.986667h-65.223111a2.986667 2.986667 0 0 1-3.015111-2.986667v-65.223111c0-1.678222 1.336889-3.015111 3.015111-3.015111h65.223111c1.649778 0 2.986667 1.336889 2.986667 3.015111v65.223111z" fill="#9398A4" p-id="1311"></path></svg>