<svg viewBox="0 0 1024 1024">
  <path d="M512 1024C228.266667 1024 0 795.733333 0 512 0 228.266667 228.266667 0 512 0s512 228.266667 512 512C1024 795.733333 795.733333 1024 512 1024zM512 85.333333C277.333333 85.333333 85.333333 277.333333 85.333333 512c0 234.666667 192 426.666667 426.666667 426.666667s426.666667-192 426.666667-426.666667C938.666667 277.333333 746.666667 85.333333 512 85.333333zM755.2 755.2c-17.066667 17.066667-42.666667 17.066667-59.733333 0L512 571.733333l-185.6 185.6c-17.066667 17.066667-42.666667 17.066667-59.733333 0-17.066667-17.066667-17.066667-42.666667 0-59.733333l185.6-185.6-185.6-185.6c-17.066667-17.066667-17.066667-42.666667 0-59.733333 17.066667-17.066667 42.666667-17.066667 59.733333 0l185.6 185.6 185.6-185.6c17.066667-17.066667 42.666667-17.066667 59.733333 0 17.066667 17.066667 17.066667 42.666667 0 59.733333L571.733333 512l185.6 185.6C772.266667 712.533333 772.266667 740.266667 755.2 755.2z"></path>
</svg>