<svg viewBox="0 0 1024 1024">
  <path d="M992 303.68V801.408c0 49.152-37.376 89.024-83.456 89.024h-83.52v-44.48h83.52c23.04 0 41.728-19.968 41.728-44.48v-467.52H783.296c-46.144 0-83.456-39.872-83.456-89.024V44.608H324.16c-23.04 0-41.728 19.968-41.728 44.48h-41.728c0-49.152 37.376-89.024 83.52-89.024H728.32L985.92 296M741.568 81.536v163.328c0 24.576 18.688 44.48 41.792 44.48h140.992L741.568 81.536z m41.728 355.712V934.848c0 49.152-37.376 89.088-83.456 89.088H115.456c-46.08 0-83.456-39.872-83.456-89.088v-712.32c0-49.152 37.376-89.024 83.456-89.024h404.096l257.664 295.872M532.864 215.04v163.392c0 24.576 18.688 44.48 41.728 44.48h140.992L532.864 215.04z m-459.136 7.552v712.32c0 24.64 18.688 44.544 41.728 44.544H699.84c23.04 0 41.728-19.968 41.728-44.544V467.456H574.656c-46.08 0-83.456-39.872-83.456-89.024v-200.32H115.52c-23.104 0-41.792 19.904-41.792 44.48z m104.384 267.136h208.704v44.48H178.112v-44.48z m0-133.568h208.704v44.48H178.112v-44.48z m459.136 311.68H178.112v-44.48h459.136v44.48z m0 133.568H178.112v-44.544h459.136v44.544z"></path>
</svg>