<svg viewBox="0 0 1100 1100" version="1.1" xmlns="http://www.w3.org/2000/svg">
  <path d="M1031.876923 628.105846c-15.753846 0-23.630769 7.876923-31.507692 15.753846-55.138462 189.046154-236.307692 322.953846-448.984616 322.953846-244.184615 0-448.984615-181.169231-472.615384-409.6 7.876923-7.876923 15.753846-23.630769 15.753846-31.507692C94.523077 502.075077 70.892308 478.444308 47.261538 478.444308S0 502.075077 0 525.705846c0 15.753846 7.876923 31.507692 23.630769 39.384616C55.138462 817.152 275.692308 1021.952 551.384615 1021.952c236.307692 0 441.107692-149.661538 504.123077-354.461538 7.876923-23.630769-7.876923-39.384615-23.630769-39.384616"></path>
  <path d="M1079.138462 488.369231C1071.261538 220.553846 834.953846 0 551.384615 0 299.323077 0 86.646154 165.415385 31.507692 393.846154c0 15.753846 7.876923 31.507692 23.63077 31.507692 15.753846 0 31.507692-7.876923 31.507692-23.630769C133.907692 196.923077 322.953846 47.261538 551.384615 47.261538c252.061538 0 464.738462 196.923077 472.615385 441.107693-7.876923 7.876923-15.753846 23.630769-15.753846 39.384615 0 23.630769 23.630769 47.261538 47.261538 47.261539 23.630769-7.876923 47.261538-23.630769 47.261539-47.261539 0-15.753846-7.876923-31.507692-23.630769-39.384615"></path>
  <path d="M212.676923 543.507692l39.384615-110.276923c0-7.876923 7.876923-7.876923 7.876924-15.753846 7.876923 0 7.876923-7.876923 15.753846-7.876923s7.876923 0 15.753846 7.876923c7.876923 0 7.876923 7.876923 7.876923 15.753846l39.384615 110.276923 31.507693-118.153846c0-7.876923 7.876923-7.876923 7.876923-7.876923 7.876923 0 7.876923-7.876923 15.753846-7.876923h15.753846v31.507692l-55.138462 149.661539c0 7.876923-7.876923 7.876923-7.876923 15.753846-7.876923 0-7.876923 7.876923-15.753846 7.876923s-15.753846 0-15.753846-7.876923c-7.876923-7.876923-7.876923-15.753846-15.753846-23.630769l-31.507692-102.4L236.307692 582.892308c0 7.876923-7.876923 15.753846-7.876923 15.753846-7.876923 7.876923-7.876923 7.876923-15.753846 7.876923s-7.876923 0-15.753846-7.876923c-7.876923 0-7.876923-7.876923-7.876923-15.753846l-55.138462-141.784616v-7.876923-7.876923-7.876923-7.876923h15.753846c7.876923 0 7.876923 0 15.753847 7.876923 7.876923 0 7.876923 7.876923 7.876923 7.876923l39.384615 118.153846zM488.369231 543.507692l39.384615-110.276923c0-7.876923 7.876923-7.876923 7.876923-15.753846 7.876923 0 7.876923-7.876923 15.753846-7.876923s7.876923 0 15.753847 7.876923c7.876923 0 7.876923 7.876923 7.876923 15.753846l39.384615 110.276923 31.507692-118.153846c0-7.876923 7.876923-7.876923 7.876923-7.876923 7.876923 0 7.876923-7.876923 15.753847-7.876923h15.753846v31.507692L630.153846 590.769231s0 7.876923-7.876923 15.753846c-7.876923 0-7.876923 7.876923-15.753846 7.876923s-15.753846 0-15.753846-7.876923c-7.876923-7.876923-7.876923-15.753846-7.876923-23.630769L551.384615 480.492308l-31.507692 102.4c0 7.876923-7.876923 15.753846-7.876923 15.753846-7.876923 7.876923-15.753846 7.876923-23.630769 7.876923-7.876923 0-7.876923 0-15.753846-7.876923l-7.876923-7.876923-47.261539-149.661539v-7.876923-7.876923-7.876923-7.876923h15.753846c7.876923 0 7.876923 0 15.753846 7.876923 7.876923 0 7.876923 7.876923 7.876923 7.876923l31.507693 118.153846zM771.938462 543.507692l39.384615-110.276923c0-7.876923 7.876923-7.876923 7.876923-15.753846 7.876923 0 7.876923-7.876923 15.753846-7.876923s7.876923 0 15.753846 7.876923c7.876923 0 7.876923 7.876923 7.876923 15.753846l39.384616 110.276923 31.507692-118.153846c0-7.876923 7.876923-7.876923 7.876923-7.876923 7.876923 0 7.876923-7.876923 15.753846-7.876923h15.753846v31.507692l-47.261538 149.661539c0 7.876923-7.876923 7.876923-7.876923 15.753846-7.876923 0-7.876923 7.876923-15.753846 7.876923s-15.753846 0-15.753846-7.876923c-15.753846-7.876923-15.753846-15.753846-23.63077-23.630769l-31.507692-102.4-31.507692 102.4c0 7.876923-7.876923 15.753846-7.876923 15.753846-7.876923 7.876923-7.876923 7.876923-15.753846 7.876923s-7.876923 0-15.753847-7.876923c-7.876923 0-7.876923-7.876923-7.876923-15.753846l-55.138461-141.784616v-7.876923-7.876923-7.876923-7.876923H708.923077c7.876923 0 7.876923 0 15.753846 7.876923 7.876923 0 7.876923 7.876923 7.876923 7.876923l39.384616 118.153846z"></path>
</svg>