<svg viewBox="0 0 1024 1024"><path d="M889.352347 890.774743 129.96398 890.774743l-0.292666-0.068562c-8.868995-0.305969-17.682731-3.88447-25.157983-10.280134-9.254781-7.918343-14.782681-18.791995-14.782681-29.076222L89.730651 400.868947c0-20.09671 12.32777-38.135552 31.052227-45.436842l56.256258-21.935592c8.746198-3.409656 14.504342-11.835559 14.504342-21.223371L191.543478 169.164794c0-22.005176 19.467377-39.907918 43.396369-39.907918l552.099277 0c23.934109 0 43.405579 17.906835 43.405579 39.922245l0 150.769842c0 9.908674 6.404873 18.680455 15.842827 21.697161l52.034097 16.636912c20.205181 6.460132 33.916461 25.239847 33.916461 46.451962l0 446.61585C932.237063 873.090988 912.997883 890.774743 889.352347 890.774743zM175.521572 480.655108l0 328.065827c0 1.723248 1.526773 3.127224 3.400446 3.127224l667.544589 0 0.029676-331.174632L532.203134 648.502907c-12.745279 6.801916-28.578896 6.815219-41.324174 0.022513L175.521572 480.655108zM272.933159 443.809945l238.058884 124.858706L749.06423 443.809945 749.06423 208.134341 272.933159 208.134341 272.933159 443.809945zM510.337127 435.234639 353.517499 435.234639c-11.996219 0-23.526833-0.287549-31.632441-8.419763-8.105608-8.128121-12.154831-19.11536-11.114129-30.143531 1.908466-20.159132 21.182438-31.575136 43.877323-31.575136l156.87898 0c11.987009 0 23.502273 0.282433 31.592532 8.402367 8.105608 8.133238 12.145621 19.133779 11.089569 30.175253C552.285518 423.823751 533.016663 435.234639 510.337127 435.234639zM667.294902 319.730998 353.517499 319.730998c-12.006452 0-23.547299-0.296759-31.657001-8.443299-8.100492-8.137331-12.140505-19.133779-11.079336-30.166043 1.923816-20.136619 21.206998-31.547507 43.901883-31.547507l313.772286 0c12.016685 0 23.557532 0.296759 31.67235 8.443299 8.100492 8.142447 12.140505 19.137873 11.079336 30.170137C709.267852 308.329321 689.979554 319.730998 667.294902 319.730998z"></path></svg>