<svg viewBox="0 0 1025 1024">
  <path transform="scale(1,-1) translate(0, 900)" d="M939-79q-25 0-74 2t-75 2q-24 0-73-2t-74-2q-13 0-21 12t-7 25q0 18 9 26t22 9 29 4 25 9q18 11 18 78l0 218q0 12-1 17-7 3-28 3h-376q-22 0-29-3 0-5 0-17l-1-207q0-79 21-91 9-6 26-8t32-2 25-8 11-26q0-14-6-26t-21-13q-26 0-78 2t-77 2q-24 0-71-2t-71-2q-13 0-20 12t-7 25q0 17 9 25t20 10 26 4 24 9q18 13 18 80l-1 31v454q0 2 1 15t0 20-1 21-2 24-4 20-6 18-9 10q-8 5-25 7t-29 1-23 7-10 26q0 14 6 26t20 13q26 0 78-2t77-2q23 0 71 2t70 2q14 0 21-13t7-26q0-17-9-25t-22-8-27-2-24-7q-20-12-20-90l1-178q0-12 0-18 7-2 22-2h390q14 0 21 2 1 6 1 18l0 178q0 78-19 90-10 6-33 7t-37 7-14 28q0 14 7 26t21 13q24 0 74-2t73-2q24 0 72 2t72 2q14 0 21-13t7-26q0-17-10-25t-22-8-29-2-24-7q-20-13-20-90l1-526q0-66 19-78 9-6 25-8t30-2 23-9 10-25q0-14-6-26t-20-13z"></path>
</svg>