<svg viewBox="0 0 1150 1150">
  <path d="M1088 128l-64 0 0-64c0-35.2-28.8-64-64-64l-896 0c-35.2 0-64 28.8-64 64l0 768c0 35.2 28.8 64 64 64l64 0 0 64c0 35.2 28.8 64 64 64l896 0c35.2 0 64-28.8 64-64l0-768c0-35.2-28.8-64-64-64zM128 192l0 640-63.872 0c-0.032-0.032-0.096-0.064-0.128-0.128l0-767.776c0.032-0.032 0.064-0.096 0.128-0.128l895.776 0c0.032 0.032 0.096 0.064 0.128 0.128l0 63.872-768 0c-35.2 0-64 28.8-64 64l0 0zM1088 959.872c-0.032 0.032-0.064 0.096-0.128 0.128l-895.776 0c-0.032-0.032-0.096-0.064-0.128-0.128l0-767.776c0.032-0.032 0.064-0.096 0.128-0.128l895.776 0c0.032 0.032 0.096 0.064 0.128 0.128l0 767.776z" p-id="3068"></path>
  <path d="M960 352c0 53.024-42.976 96-96 96s-96-42.976-96-96 42.976-96 96-96 96 42.976 96 96z" p-id="3069"></path>
  <path d="M1024 896l-768 0 0-128 224-384 256 320 64 0 224-192z" p-id="3070"></path>
</svg>