<svg viewBox="0 0 1100 1100" xmlns="http://www.w3.org/2000/svg">
  <path d="M102.4 58.514286C95.085714 58.514286 87.771429 65.828571 87.771429 73.142857v738.742857c0 7.314286 7.314286 14.628571 14.628571 14.628572h672.914286c7.314286 0 14.628571-7.314286 14.628571-14.628572V73.142857c0-7.314286-7.314286-14.628571-14.628571-14.628571H102.4zM775.314286 877.714286H102.4c-36.571429 0-65.828571-29.257143-65.828571-65.828572V73.142857C36.571429 36.571429 65.828571 7.314286 102.4 7.314286h672.914286c36.571429 0 65.828571 29.257143 65.828571 65.828571v738.742857c0 36.571429-29.257143 65.828571-65.828571 65.828572z"></path>
  <path d="M599.771429 709.485714H270.628571c-21.942857 0-43.885714-14.628571-43.885714-43.885714V570.514286c0-21.942857 21.942857-43.885714 43.885714-43.885715h329.142858c21.942857 0 43.885714 14.628571 43.885714 43.885715v102.4c0 14.628571-21.942857 36.571429-43.885714 36.571428"></path>
  <path d="M607.085714 431.542857H270.628571c-21.942857 0-36.571429-14.628571-36.571428-36.571428s14.628571-36.571429 36.571428-36.571429h336.457143c21.942857 0 36.571429 14.628571 36.571429 36.571429 0 14.628571-14.628571 36.571429-36.571429 36.571428M607.085714 263.314286H270.628571c-21.942857 0-36.571429-14.628571-36.571428-36.571429s14.628571-36.571429 36.571428-36.571428h336.457143c21.942857 0 36.571429 14.628571 36.571429 36.571428s-14.628571 36.571429-36.571429 36.571429"></path>
  <path d="M977.700571 265.581714c0-14.628571-14.628571-29.257143-29.257142-21.942857-14.628571 0-21.942857 14.628571-21.942858 29.257143v694.857143h-702.171428c-14.628571 0-21.942857 7.314286-29.257143 21.942857 0 14.628571 7.314286 29.257143 21.942857 29.257143h731.428572c14.628571 0 21.942857-14.628571 21.942857-21.942857v-731.428572z"></path>
</svg>