<svg t="1531719987334" viewBox="0 0 1024 1024">
  <path d="M68.923077 866.461538c-13.784615 0-29.538462 13.784615-29.538462 29.538462v59.076923c0 15.753846 15.753846 29.538462 29.538462 29.538462h470.646154c15.753846 0 31.507692-15.753846 31.507692-29.538462V301.292308c0-17.723077 19.692308-25.6 33.476923-13.784616l110.276923 110.276923c11.815385 11.815385 29.538462 11.815385 41.353846 0l41.353847-41.353846c11.815385-11.815385 11.815385-29.538462 0-41.353846L531.692308 47.261538c-11.815385-11.815385-29.538462-11.815385-41.353846 0L224.492308 313.107692c-11.815385 11.815385-11.815385 29.538462 0 41.353846l41.353846 41.353847c11.815385 11.815385 29.538462 11.815385 41.353846 0l110.276923-110.276923c11.815385-11.815385 35.446154-3.938462 35.446154 13.784615v537.6c0 31.507692-31.507692 29.538462-31.507692 29.538461H68.923077z"></path>
</svg>