<svg viewBox="0 0 1025 1024">
  <path transform="scale(1,-1) translate(0, 900)" d="M213-54q0-45-31-70t-75-26q-60 0-96 37l31 49q28-25 60-25 16 0 28 8t12 24q0 35-59 31l-14 31q4 6 18 24t24 31 20 21v1q-9 0-27-1t-27 0v-30h-59v85h186v-49l-53-65q28-6 45-27t17-49z m1 350v-89h-202q-4 20-4 30 0 29 14 52t31 38 37 27 31 24 14 25q0 14-9 22t-22 7q-25 0-45-32l-47 33q13 28 40 44t59 16q40 0 68-23t28-63q0-28-19-51t-42-36-42-28-20-30h71v34h59z m786-178v-107q0-7-5-13t-13-5h-678q-8 0-13 5t-5 13v107q0 8 5 13t13 5h678q7 0 13-6t5-12z m-786 502v-56h-187v56h60q0 22 0 67t1 68v7h-1q-5-10-28-30l-40 42 76 71h59v-225h60z m786-216v-108q0-7-5-12t-13-5h-678q-8 0-13 5t-5 12v108q0 7 5 12t13 5h678q7 0 13-5t5-12z m0 285v-107q0-7-5-12t-13-6h-678q-8 0-13 6t-5 12v107q0 8 5 13t13 5h678q7 0 13-5t5-13z"></path>
</svg>