<svg viewBox="0 0 400 400">
  <g>
    <path d="M347.5,92.1c-8.6.2-13.8,4-15.4,11.2a11.6,11.6,0,0,0,8.2,2.6c6.5-.3,13-5.3,11.2-13.7h-3.9" />
    <path d="M393,86.7c-1.8,12.6-9.9,19.6-19.4,26.3s-17.5,11.5-23.4,20.7-9.9,41.5-19.2,73.2c-7.8,26.3-19.3,52.4-39.1,64.9a2.1,2.1,0,0,1-3.3-1.4c-1.3-7.4-1.1-20.8-3.4-16.4a174.6,174.6,0,0,1-9.9,23.2c-11.6,22.3-28.5,39.3-55.7,46a2.4,2.4,0,0,1-2.6-3.8c12.6-17.4,23.8-36.2,25.2-64.8a2.5,2.5,0,0,0-4.5-1.7c-5.9,7.3-7.4,24.7-16.1,30.1a122.6,122.6,0,0,1-20.6.3c-28.5-1.7-57.8-10.3-84.4-1.7-18.2,5.8-37.2,22.4-52.6,29.1-18.1,7.8-26.6,15.2-49.5,14.7-2.3-3.1,9.5-16.7,13.6-22.6,1.3-1.9-1.5-3.9-4-5-6.2-2.8-12.4-10.5-19-13.5.8-1.6,3.8-3.1,5.5-4.1,15-8.7,54.7,9.8,65.3-.7a115.8,115.8,0,0,0,15.5-18.7c4.3-6.4,10.9-13.1,17.8-18.7,2.5-2.1,6.1-4.6,9-6.6,11.6-8,18.1-8.6,33.1-14.2,19.2-7.1,42.9-13.4,63.5-21.3,12.7-4.9,26.5-10.9,37.8-19.3a76.1,76.1,0,0,0,7.6-6.4c32.2-31.4,38.6-86.7,88.8-91.9,6.1-.6,10.4-.9,14.9-1a37.5,37.5,0,0,0,15.1-3.8c1.5-.7,10.7-6.2,13.8-3.5s.5,11.5.4,12.6M392,67.5h-.8c-6.2.2-7.1,3.5-20.4,6.8s-26.5.1-40.9,6.2c-43.3,18.1-52.5,80.7-91.8,102.9-29.4,16.6-57.8,24-84.5,32.3-17.5,5.5-34.9,11.8-50.8,25.5-12.3,10.6-15.7,18.9-28.5,32.2s-53.4-10.4-73,7.1a3.9,3.9,0,0,0,.1,5.8c4.3,3.7,12.3,12.6,20,15.3-2.4,4.6-16.2,18.2-13.4,25s37.1,2.3,68.8-16.8c14.7-8.9,26.4-21.7,49.4-24.8,29.7-4,63.8,2.5,98.2,7.5-5.1,15.2-15.3,25.3-23.5,37.4-2.5,2.7,5.1,3,13.8,1.4,15.7-3.9,26.9-7,38.8-13.9,14.5-8.5,16.7-30.1,34.5-34.8,8.6,13.2,30.1,17.7,46.5,10.7l2.7-1.3c2-1.7.8-3.8-.4-5.2l-1.7-1.7c-9.3-10-11.4-33.6-7.3-45,4.7-13,9.3-33.9,14.1-51.2s7-41.9,13.1-51.3c9.3-14.2,19.5-19.1,28.4-27.1s17-15.8,16.7-34.1c-.1-5.6-2.9-8.9-8-9" />
  </g>
</svg>