<svg viewBox="0 0 960 960" >
    <path d="M1166.942 884.193a250.776 250.776 0 0 1 46.811 58.723l12.748 17.345c2.926 5.434 3.344 12.33 6.479 17.763v1.254a640 640 0 0 1-97.176-31.556c-35.944-15.673-103.654-45.975-105.744-47.856-176.17-84.428-161.123-89.861-185.364-108.67a464.144 464.144 0 0 1-33.228-35.526 286.156 286.156 0 0 1-57.052-78.158c-5.433-15.256-10.658-30.72-16.091-45.976l0.209-1.254a40.124 40.124 0 0 0-5.016 14.42c-9.195 25.914-7.314 56.842-30.72 64.157-26.749 8.568-42.631-22.361-49.11-36.78a249.396 249.396 0 0 1 3.762-179.932 169.273 169.273 0 0 1 15.464-39.08 38.515 38.515 0 0 0-10.658-19.434 240.536 240.536 0 0 1-14.628-34.482 691.096 691.096 0 0 1-18.6-74.397c-2.507-10.03-2.09-19.226-5.224-28.63a244.276 244.276 0 0 0-20.898-42.632c-10.03-18.808-39.706-56.424-22.779-89.861a39.225 39.225 0 0 1 43.26-22.779 178.782 178.782 0 0 1 78.784 41.587 175.835 175.835 0 0 0 20.69 20.69c12.33 2.089 25.077 4.179 37.407 6.269a212.992 212.992 0 0 1 61.022 28.212 521.697 521.697 0 0 1 172.617 219.01 531.393 531.393 0 0 1 18.808 63.321c9.404 32.183 20.271 65.41 31.556 96.34a253.137 253.137 0 0 0 16.091 43.259 59.413 59.413 0 0 0 18.39 11.911c15.883 10.867 34.482 19.645 49.32 31.974a757.488 757.488 0 0 1 75.024 73.77c8.777 10.031 13.792 23.615 21.733 34.273l-0.418 4.806c-8.359 1.672-16.509 3.135-24.66 4.807-18.18 3.135-33.227 0.418-50.781 3.552a215.249 215.249 0 0 1-35.109 4.807 3.74 3.74 0 0 0 1.045 1.463c4.598 20.062 37.616 39.706 52.036 53.29zM760.059 251.61a34.962 34.962 0 0 0-18.808-13.792 12.539 12.539 0 0 0-3.971 0c-16.718-5.016-36.571 10.867-21.316 23.197a173.286 173.286 0 0 1 24.033 57.05 43.76 43.76 0 0 0 20.062-66.455zM623.386 140.852z m140.434 16.3l-8.777-3.343-39.288-6.896c-1.672-1.672-3.762-4.18-5.224-5.852a135.837 135.837 0 0 0-11.912-12.33 215.583 215.583 0 0 0-98.848-51.2 68.148 68.148 0 0 0-72.098 38.244c-21.733 42.84 5.016 86.726 19.436 110.55 2.298 3.762 4.388 7.105 5.851 10.03l5.433 9.823a183.902 183.902 0 0 1 15.674 32.6 73.143 73.143 0 0 1 2.508 13.166 118.115 118.115 0 0 0 2.716 16.51l5.016 22.57a465.335 465.335 0 0 0 16.091 61.44 305.758 305.758 0 0 0 17.555 40.96 1115.784 1115.784 0 0 1-181.604 14.628C195.396 448.052 0 376.372 0 287.974V160.078C0 71.68 195.396 0 436.35 0s436.14 71.68 436.14 160.078v65.411c-14.21-12.748-29.048-25.078-44.095-36.99a222.584 222.584 0 0 0-64.575-31.346zM436.35 543.975a1119.086 1119.086 0 0 0 158.824-11.076 276.02 276.02 0 0 0 12.748 159.87 147.581 147.581 0 0 0 15.882 27.585 1108.888 1108.888 0 0 1-187.455 15.673C195.396 736.026 0 664.346 0 575.948V383.896c0 88.398 195.396 160.078 436.35 160.078z m0 287.974c133.746 0 253.492-22.152 333.53-57.052 5.016 5.643 10.24 11.285 15.674 16.51 3.97 4.18 7.733 8.777 11.703 13.374a200.37 200.37 0 0 0 26.54 27.377 88.586 88.586 0 0 1 10.032 8.986 206.326 206.326 0 0 0 37.825 29.257c-9.195 85.264-200.412 153.6-435.305 153.6C195.396 1024 0 952.32 0 863.922V672.078c0 88.19 195.396 159.87 436.35 159.87z"><path d="M504.99072 659.82976c-15.94368-35.328-19.2768-84.57216-10.40384-130.7648-40.09472 5.79072-83.59936 9.08288-129.27488 9.08288-196.096 0-355.0464-58.55744-355.0464-130.78528v156.94848c0 72.21248 158.94528 130.80576 355.0464 130.80576 54.72256 0 106.3424-4.7104 152.63744-12.84096-4.66944-6.27712-9.00608-13.6704-12.95872-22.44608z"></path></path>
</svg>