<svg height="448pt" viewBox="-31 0 447 448" width="448pt" xmlns="http://www.w3.org/2000/svg"><path d="m192.5 296c4.417969 0 8-3.582031 8-8v-128c.015625-2.085938-.8125-4.085938-2.296875-5.550781-1.480469-1.570313-3.546875-2.457031-5.703125-2.449219-4.417969 0-8 3.582031-8 8v128c0 4.417969 3.582031 8 8 8zm0 0"/><path d="m256.5 368h112v80h-112zm0 0"/><path d="m368.5 320v-64c-.058594-48.578125-39.421875-87.941406-88-88h-64v112h16c13.253906 0 24 10.746094 24 24v16zm0 0"/><path d="m382.050781 349.695312c1.566407-1.480468 2.453125-3.539062 2.449219-5.695312 0-4.417969-3.582031-8-8-8h-128c-4.417969 0-8 3.582031-8 8s3.582031 8 8 8h128c2.085938.019531 4.09375-.8125 5.550781-2.304688zm0 0"/><path d="m104.5 280h64v-112h-16c-13.253906 0-24-10.746094-24-24v-16h-112v64c.058594 48.578125 39.421875 87.941406 88 88zm0 0"/><path d="m136.5 112c4.417969 0 8-3.582031 8-8s-3.582031-8-8-8h-128c-2.085938-.023438-4.089844.808594-5.542969 2.304688-1.570312 1.476562-2.460937 3.539062-2.457031 5.695312 0 4.417969 3.582031 8 8 8zm0 0"/><path d="m16.5 0h112v80h-112zm0 0"/></svg>