<svg viewBox="0 0 960 960">
  <path d="M511.6 130.1C267 130.1 68 277.4 68 458.3c0 101 61.4 194.8 167 256.6 2.4 1.7 5 3.4 7.6 5.1 13.8 9.1 22.4 15.3 24.6 26.9 2.9 15.3-3.6 48.1-51.5 117.2-4.5 6.5-4.7 14.9-0.6 21.6 3.6 5.9 10 9.4 16.8 9.4 0.9 0 1.9-0.1 2.8-0.2 45.3-6.5 102.1-37.2 144.8-78.2 32.9-31.6 46.3-34.1 60.4-34.1 2.6 0 5.2 0.1 6.8 0.2 24.3 2.6 44.9 3.9 64.9 3.9 244.6 0 443.5-147.2 443.5-328.2 0-181.1-199-328.4-443.5-328.4z m0 617c-18.6 0-37.8-1.2-61.8-3.7-30.7-1.6-53.5 2.4-97.7 44.9-23.6 22.7-50.2 39.9-74.2 51.4 23.9-42.3 32.9-74.8 28-100.1-5.5-28.5-26.3-42.3-41.6-52.3-2.3-1.5-4.5-3-8.1-5.4-94.6-55.4-148.8-136.8-148.8-223.4 0-159.2 181.3-288.8 404.1-288.8s404.1 129.5 404.1 288.8-181.2 288.6-404 288.6z m-25.2-518.4c-176.4 0-319.8 106.8-319.8 238.2 0 10.9 8.8 19.7 19.7 19.7 10.9 0 19.7-8.8 19.7-19.7 0-109.6 125.8-198.7 280.4-198.7 10.9 0 19.7-8.8 19.7-19.7 0.1-11-8.8-19.8-19.7-19.8z"></path>
</svg>