<svg viewBox="0 0 1024 1024">
  <path d="M509.099 85.117C230.895 85.117 5.444 248.855 5.444 450.8c0 125.764 76.977 235.372 210.074 301.26 0 0.774-0.24 1.332-0.24 2.202 0 54.642-31.63 114.728-50.164 145.647h0.063a26.601 26.601 0 0 0-2.338 10.86c0 15.326 12.726 27.614 28.53 27.614 2.36 0 6.144-0.472 7.526-0.472 0.341 0 0.518 0 0.49 0.091 98.371-15.559 206.551-99.692 228.067-125.076 22.101 3.18 37.04 3.658 55.546 3.658 7.805 0 16.236-0.09 26.1-0.09 278.142 0 503.66-163.704 503.66-365.688-0.005-201.95-225.518-365.688-503.66-365.688z m0 688.93l-14.91 0.057-11.191 0.034c-17.277 0-28.615-0.45-46.296-3.003l-35.294-4.881-22.619 26.515c-10.428 12.175-82.608 54.403-141.198 81.573 11.93-30.503 20.719-82.306 21.487-115.25l0.313-1.821v-42.49l-34.276-16.96c-111.741-55.33-175.804-145.35-175.804-247.01 0-168.033 216.787-323.238 459.793-323.238 243.007 0 459.793 155.205 459.793 323.237-0.005 168.01-216.792 323.237-459.798 323.237z" fill="#2c2c2c" p-id="1654"></path>
</svg>