<svg viewBox="0 0 960 960">
    <path d="M434.208 445.984c17.408 0 41.632 0.352 58.432-0.512 29.408-59.2 59.2-107.104 116.448-118.816 109.408-22.336 128.224 11.776 182.336 20.896 9.792-12.32 15.04-25.312 15.04-38.816V199.232c-0.064-76-166.88-137.248-372.256-137.248S61.984 123.232 61.984 199.2v109.504c0 75.552 166.4 137.248 372.224 137.248z m0 246.752c38.528 0 66.976-2.112 101.952-6.112 0 0-20.384-36.768-29.408-72.928-15.296-61.184-12.928-87.232-16.48-87.04-18.304 1.024-36.992 1.6-56.064 1.6-205.44 0-372.224-61.248-372.224-137.216v164.512c0 75.552 166.4 137.216 372.224 137.216z m133.696 72.736c-44.032 6.752-83.072 9.568-133.696 9.568-205.44 0-371.84-61.28-371.84-137.248v164.512c0 75.552 166.4 137.28 372.224 137.28 163.104 0 301.824-38.592 352.096-92.544-189.344 30.208-213.952-82.304-218.752-81.568z m451.776-210.656c1.472-7.648 2.464-16.64 2.752-25.792v-0.288c-36.384-4.448-50.944 4-56.64 12.128-19.2 27.488 18.272 94.848 34.368 123.584 2.624 4.32 5.472 9.6 8 15.04l0.448 1.056c1.696 4 3.36 7.296 5.184 10.464l-0.256-0.48c11.04-23.52 8.128-47.264 5.376-70.304a244.832 244.832 0 0 1-2.464-34.688 249.92 249.92 0 0 1 3.424-32.16l-0.224 1.44z m-207.52 192.032c-5.056-2.144-7.84-3.232-13.824 3.52a220.384 220.384 0 0 0-9.504 11.52c-11.2 14.272-16.48 19.2-49.888 26.08a63.04 63.04 0 0 0-13.472 4l0.416-0.16c3.52 2.336 7.616 4.16 12 5.344l0.288 0.064c24.704 6.144 58.944 6.624 82.432-26.4 2.752-3.84 2.016-8.896 1.184-11.52-1.472-5.728-5.472-10.784-9.6-12.48zM751.072 398.08c-32.064-10.432-112.032-31.168-160.704 3.36-29.76 21.184-43.584 60.64-40.672 117.28 0.928 17.952 12.288 81.664 31.616 145.056 22.4 73.44 47.712 119.584 69.696 126.784 3.36 1.056 13.504 4.448 28.384-13.216q23.968-28.8 49.632-56.16a109.92 109.92 0 0 1-6.592-6.144 96.32 96.32 0 0 1-25.312-80.448c4.448-32.224 2.752-60.768 1.856-75.968a130.272 130.272 0 0 1-0.48-9.408c-0.16-5.536-1.376-96.544 51.264-149.664a11.84 11.84 0 0 1 1.344-1.472z m-15.36 304.096c12.896 13.344 29.76 20.928 47.136 20.928a224.32 224.32 0 0 1 9.312-27.616l-0.544 1.504 1.376-3.68c1.824-4.704 3.84-9.408 5.984-14.272 10.432-23.52 23.648-52.8 8.448-123.264-2.912-13.664-9.984-21.504-21.632-24.096-25.472-5.888-61.088 13.344-68.768 20.128 0 1.536 0.16 3.52 0.32 5.664 0.928 15.968 2.752 45.6-1.984 79.68-3.36 24.192 4 48 20.416 65.024z m280.896 24.256a255.008 255.008 0 0 0-4.896-6.432 125.536 125.536 0 0 1-20.256-32.704c-0.928-2.368-4-7.808-7.52-14.112-19.2-34.528-59.232-106.208-33.312-143.2 11.776-17.024 35.296-23.776 69.856-20.256-4.608-13.664-16.128-38.816-37.312-63.84-24.576-29.024-68.16-64.032-136.16-65.088-34.528-0.608-62.784 9.984-84.128 31.456-33.76 34.112-42.816 87.968-45.12 116.8 1.536-0.928 3.232-1.824 5.056-2.752 8.608-4.288 25.792-11.968 44.512-13.824 31.328-3.232 51.904 10.752 58.176 39.296 16.576 76.288 1.184 110.208-9.824 134.784-2.016 4.608-4 8.896-5.536 13.056l-1.376 3.68c-3.232 8.736-6.304 16.896-8 24.096 8.128-2.144 15.04 0.768 18.72 2.368 9.408 3.84 17.024 13.184 20.256 24.384 0.48 1.6 0.896 3.52 1.152 5.504l0.032 0.192a12.768 12.768 0 0 1 0.32 2.592v0.032c-2.144 76.608 0.928 146.112 7.072 161.472 9.408 24.128 23.808 44.832 64.608 36.064 39.456-8.448 53.408-22.72 60-60.768 4.896-28.864 14.752-110.656 16.128-128.032-1.6-34.752 17.12-41.792 27.552-44.736z m-20.576-293.504c29.472 34.24 43.904 72.16 44.96 84.704a16.32 16.32 0 0 1-0.32 5.024l0.032-0.096c0.448 13.184-1.184 24.416-2.944 35.136a203.328 203.328 0 0 0-3.04 27.968v0.448c-0.32 9.984 0.928 20.576 2.368 31.776 3.232 27.456 7.072 58.336-11.968 89.472l0.928 1.184c0.768 0.928 1.536 1.856 2.144 2.752 73.216-115.104 98.56-248.672 75.52-277.984-29.632-38.208-71.84-58.336-125.408-59.392l-4.64-0.032a238.08 238.08 0 0 0-50.656 5.408l1.568-0.288a201.536 201.536 0 0 1 71.488 53.984z m33.632 311.616c-0.928-0.608-1.856-1.184-2.624-1.824-1.184 0.448-2.624 0.768-3.84 1.184-8.608 2.464-16.576 4.608-15.52 26.24 2.144 1.824 11.776 4.896 30.592 3.968 17.024-0.768 34.848-4.448 45.44-9.504 12.448-5.888 21.184-12.128 26.24-17.056h-0.064a0.544 0.544 0 0 0-0.384 0.16c-37.952 7.872-64.832 6.816-79.872-3.168z"></path>
</svg>