<!-- <svg viewBox="0 0 1024 1024">
	<path d="M659.2 256c-38.4-38.4-92.8-64-147.2-64-51.2 0-102.4 19.2-140.8 57.6-38.4 38.4-57.6 86.4-57.6 140.8 0 19.2 16 35.2 35.2 35.2s35.2-16 35.2-35.2c0-70.4 57.6-128 128-128 35.2 0 70.4 16 96 41.6 22.4 22.4 32 51.2 32 83.2 0 25.6-3.2 51.2-76.8 124.8-44.8 44.8-86.4 89.6-89.6 144-3.2 19.2 12.8 35.2 32 38.4h3.2c19.2 0 32-12.8 35.2-32 3.2-28.8 28.8-60.8 70.4-102.4 86.4-86.4 96-128 99.2-169.6-3.2-51.2-19.2-99.2-54.4-134.4zM464 790.4c0 22.4 19.2 41.6 41.6 41.6 22.4 0 41.6-19.2 41.6-41.6 0-22.4-19.2-41.6-41.6-41.6-22.4 0-41.6 19.2-41.6 41.6z" p-id="2497"></path>
</svg> -->
<!-- <svg viewBox="0 0 1024 1024">
	<path d="M644.3 263.4c-39.2-41.2-94.5-64.7-151.9-64.7-54.3 0.1-105.3 21.3-143.7 59.8-38.4 38.4-59.5 89.5-59.5 143.8 0 19.9 16.1 36 36 36s36-16.1 36-36c0-72.4 58.9-131.5 131.3-131.6h0.3c37.5 0 73.7 15.4 99.2 42.3 22.6 23.8 34.1 54 32.4 85.3-1.4 26.6-2.7 51.7-79.7 128.7-46.3 46.3-88.2 92.4-93.8 148.8-1.9 19.8 12.5 37.4 32.3 39.4 1.2 0.1 2.4 0.2 3.6 0.2 18.3 0 34-13.9 35.8-32.5 2.9-29.5 30.1-62 73-104.9 89.4-89.4 98.3-130.8 100.7-175.7 2.9-51.4-15.6-100.7-52-138.9zM442.8 815.8a43.2 43.2 0 1 0 86.4 0 43.2 43.2 0 1 0-86.4 0z" p-id="2615"></path>
</svg> -->

<svg viewBox="0 0 1024 1024">
	<path d="M521.216 164.864c161.792 0 199.68 149.504 106.496 242.688C523.264 512 441.344 532.48 441.344 749.568l158.72 0c1.024-123.904 62.464-182.272 125.952-239.616 58.368-53.248 120.832-99.328 120.832-206.848C846.848 132.096 687.104 10.24 521.216 10.24 333.824 10.24 177.152 142.336 177.152 326.656l158.72 0C335.872 234.496 428.032 164.864 521.216 164.864" p-id="3346"></path><path d="M441.344 855.04l158.72 0 0 158.72-158.72 0 0-158.72Z" p-id="3347"></path>
</svg>