<svg viewBox="0 0 960 960">
    <path d="M1024.263529 760.470588a8.734118 8.734118 0 0 1-6.324705 7.529412l-502.061177 163.84L512.263529 933.647059h-3.614117L6.588235 768a8.131765 8.131765 0 0 1-6.324706-7.529412v-116.555294a6.324706 6.324706 0 0 1 0-3.614118 9.336471 9.336471 0 0 0 5.421177 3.915295l501.76 163.84h7.529412l502.663529-163.538824a9.336471 9.336471 0 0 0 5.421177-3.915294 8.432941 8.432941 0 0 1 0 3.614118v116.555294z m-6.324705-184.018823l-502.061177 163.84a10.24 10.24 0 0 1-7.529412 0L6.588235 576.451765a8.432941 8.432941 0 0 1-6.324706-7.830589V451.764706a7.228235 7.228235 0 0 1 0-3.614118 10.24 10.24 0 0 0 6.324706 3.614118l501.76 163.84a10.24 10.24 0 0 0 7.529412 0L1017.637647 451.764706a9.637647 9.637647 0 0 0 6.625882-3.011765 8.734118 8.734118 0 0 1 0 3.011765v116.85647a8.734118 8.734118 0 0 1-6.324705 7.830589z m0-188.536471l-502.061177 163.84h-7.228235L6.588235 387.915294a8.432941 8.432941 0 0 1-6.324706-7.830588V263.529412a8.432941 8.432941 0 0 1 6.324706-7.529412l501.76-163.84a12.950588 12.950588 0 0 1 7.529412 0L1017.938824 256a8.432941 8.432941 0 0 1 6.324705 7.529412v116.85647a8.734118 8.734118 0 0 1-6.324705 7.529412zM349.628235 344.545882l182.211765 60.235294a1.807059 1.807059 0 0 0 1.807059 0l51.501176-80.414117v-1.807059a2.409412 2.409412 0 0 0-2.108235 0l-233.712941 19.576471a2.108235 2.108235 0 0 0-1.807059 0 1.807059 1.807059 0 0 0 0 2.108235zM249.336471 229.797647A264.734118 264.734118 0 0 0 171.934118 240.941176c-21.684706 6.927059-33.731765 16.865882-33.731765 27.407059s12.649412 21.383529 36.141176 30.117647a280.997647 280.997647 0 0 0 86.136471 12.047059 256.903529 256.903529 0 0 0 78.908235-10.842353c21.082353-6.927059 32.527059-16.564706 32.527059-27.105882s-13.251765-21.684706-37.345882-30.117647a279.792941 279.792941 0 0 0-85.232941-11.745883zM634.842353 210.823529l-80.414118-26.804705 42.767059-30.117648a1.807059 1.807059 0 0 0 0-2.108235 2.409412 2.409412 0 0 0-2.409412 0l-95.774117 15.058824-81.317647-25.901177h-2.409412a1.505882 1.505882 0 0 0 0 2.108236l20.178823 33.430588-95.472941 15.058823a1.807059 1.807059 0 0 0-1.807059 1.505883 1.807059 1.807059 0 0 0 1.807059 1.807058L452.028235 201.788235l21.684706 35.538824h1.807059l46.08-31.924706 111.134118 7.529412a2.409412 2.409412 0 0 0 2.108235 0 1.505882 1.505882 0 0 0 0-2.108236z m251.482353 57.22353l-142.456471-48.489412h-1.505882l-126.494118 41.261177a1.505882 1.505882 0 0 0 0 1.505882 1.807059 1.807059 0 0 0 0 1.807059l143.058824 48.489411h1.505882L886.324706 271.058824a1.807059 1.807059 0 0 0 0-1.505883 1.807059 1.807059 0 0 0 0-1.807059z"></path>
</svg>