<svg viewBox="0 0 1025 1024">
  <path transform="translate(50, 150)" d="M716 548l-198-198 198-198 80 80q17 18 39 8 22-9 22-33v-250q0-14-10-25t-26-11h-250q-23 0-32 23-10 21 7 38l81 81-198 198-198-198 80-81q17-17 8-38-10-23-33-23h-250q-15 0-25 11t-11 25v250q0 24 22 33 22 10 39-8l80-80 198 198-198 198-80-80q-11-11-25-11-7 0-14 3-22 9-22 33v250q0 14 11 25t25 11h250q23 0 33-23 9-21-8-38l-80-81 198-198 198 198-81 81q-17 17-7 38 9 23 32 23h250q15 0 26-11t10-25v-250q0-24-22-33-7-3-14-3-14 0-25 11z"></path>
</svg>