<svg viewBox="0 0 1250 1250" xmlns="http://www.w3.org/2000/svg" >
  <path d="M1024 961.629091c130.327273 0 223.418182-111.709091 223.418182-251.345455 0-139.636364-102.4-251.345455-223.418182-251.345454h-27.927273v-27.927273C996.072727 226.210909 847.127273 67.956364 670.254545 67.956364c-130.327273 0-251.345455 93.090909-307.2 242.036363v18.618182h-37.236363c-158.254545 0-279.272727 139.636364-279.272727 316.509091s121.018182 316.509091 279.272727 316.509091H1024z m9.309091 55.854545s-9.309091 0 0 0H335.127273h-37.236364c-74.472727-9.309091-148.945455-46.545455-204.8-111.709091-55.854545-74.472727-93.090909-167.563636-93.090909-260.654545 0-204.8 148.945455-381.672727 335.127273-381.672727C390.981818 105.192727 530.618182 2.792727 679.563636 2.792727c195.490909 0 363.054545 176.872727 372.363637 390.981818 139.636364 18.618182 251.345455 158.254545 251.345454 316.509091 0 167.563636-121.018182 307.2-269.963636 307.2z"></path>
  <path d="M856.436364 428.218182h-372.363637c-9.309091-9.309091-18.618182-18.618182-37.236363-18.618182s-46.545455 27.927273-46.545455 55.854545 18.618182 46.545455 46.545455 46.545455c9.309091 0 27.927273-9.309091 37.236363-18.618182h372.363637c18.618182 0 27.927273-9.309091 27.927272-27.927273 0-18.618182-9.309091-37.236364-27.927272-37.236363M856.436364 605.090909h-372.363637c-9.309091-9.309091-18.618182-18.618182-37.236363-18.618182-27.927273 0-46.545455 18.618182-46.545455 46.545455s18.618182 46.545455 46.545455 46.545454c9.309091 0 27.927273-9.309091 37.236363-18.618181h372.363637c18.618182 0 27.927273-9.309091 27.927272-27.927273 0-9.309091-9.309091-27.927273-27.927272-27.927273M856.436364 781.963636h-372.363637c-9.309091-9.309091-18.618182-18.618182-37.236363-18.618181-27.927273 0-46.545455 18.618182-46.545455 46.545454s18.618182 46.545455 46.545455 46.545455c18.618182 0 27.927273-9.309091 37.236363-18.618182h372.363637c18.618182 0 27.927273-9.309091 27.927272-27.927273 0-18.618182-9.309091-27.927273-27.927272-27.927273"></path>
</svg>