<svg viewBox="0 0 1025 1024">
  <path transform="scale(1,-1) translate(0, 900)" d="M501 86v-93h-139l-89 141-13 23q-4 5-6 12h-2q0-2-1-4t-2-4-2-4q-5-11-14-25l-86-139h-144v93h71l110 162-103 152h-76v94h154l77-127q1-2 13-24 4-5 6-11h2q1 5 6 11l14 24 78 127h143v-94h-69l-103-149 114-165h61z m356-121v-115h-287l-2 15q-2 25-2 26 0 35 15 65t36 48 47 37 47 30 36 30 15 36q0 21-17 35t-39 13q-28 0-54-21-8-6-20-22l-59 52q15 20 35 37 45 36 105 36 62 0 100-33t37-89q0-37-19-66t-47-48-55-35-49-35-23-41h130v45h70z"></path>
</svg>