<svg viewBox="0 0 1025 1024">
  <path transform="scale(1,-1) translate(0, 900)" d="M286 82v107q0 8-5 13t-13 5h-179q-7 0-12-5t-6-13v-107q0-8 6-13t12-5h179q8 0 13 5t5 13z m0 214v108q0 7-5 12t-13 5h-179q-7 0-12-5t-6-12v-108q0-7 6-12t12-5h179q8 0 13 5t5 12z m285-214v107q0 8-5 13t-12 5h-179q-8 0-13-5t-5-13v-107q0-8 5-13t13-5h179q7 0 12 5t5 13z m-285 429v107q0 8-5 13t-13 5h-179q-7 0-12-5t-6-13v-107q0-8 6-13t12-5h179q8 0 13 5t5 13z m285-215v108q0 7-5 12t-12 5h-179q-8 0-13-5t-5-12v-108q0-7 5-12t13-5h179q7 0 12 5t5 12z m286-214v107q0 8-5 13t-13 5h-178q-8 0-13-5t-5-13v-107q0-8 5-13t13-5h178q8 0 13 5t5 13z m-286 429v107q0 8-5 13t-12 5h-179q-8 0-13-5t-5-13v-107q0-8 5-13t13-5h179q7 0 12 5t5 13z m286-215v108q0 7-5 12t-13 5h-178q-8 0-13-5t-5-12v-108q0-7 5-12t13-5h178q8 0 13 5t5 12z m0 215v107q0 8-5 13t-13 5h-178q-8 0-13-5t-5-13v-107q0-8 5-13t13-5h178q8 0 13 5t5 13z m72 178v-607q0-37-27-63t-63-26h-750q-36 0-63 26t-26 63v607q0 37 26 63t63 27h750q37 0 63-27t27-63z"></path>
</svg>