<svg viewBox="0 0 1025 1024">
  <path transform="scale(1,-1) translate(0, 900)" d="M27 726q-21 1-25 2l-2 49q7 1 22 1 34 0 63-3 74-4 93-4 47 0 93 2 65 2 82 3 31 0 48 1l-1-8 1-36v-5q-33-5-69-5-33 0-44-14-7-7-7-73 0-7 0-18t0-15l1-127 8-157q3-69 28-112 20-33 54-52 49-26 98-26 59 0 107 16 31 10 55 28 27 20 37 36 20 31 29 63 12 41 12 128 0 44-2 72t-6 68-8 89l-2 33q-3 37-13 49-19 20-43 19l-56-1-8 2 1 48h47l114-6q43-2 110 6l10-1q3-22 3-29 0-4-2-17-25-7-47-8-41-6-44-9-8-8-8-23 0-4 0-15t1-17q5-11 13-221 3-109-9-170-8-42-23-68-21-36-62-69-42-31-102-49-61-19-142-19-93 0-159 26-66 26-99 68-34 42-47 109-9 45-9 132v186q0 105-9 119-14 20-82 22z m830-787v36q0 8-5 13t-13 5h-821q-8 0-13-5t-5-13v-36q0-8 5-13t13-5h821q8 0 13 5t5 13z"></path>
</svg>