<?xml version="1.0" standalone="no"?><!DOCTYPE svg PUBLIC "-//W3C//DTD SVG 1.1//EN" "http://www.w3.org/Graphics/SVG/1.1/DTD/svg11.dtd"><svg t="1520497427880" class="icon" style="" viewBox="0 0 1024 1024" version="1.1" xmlns="http://www.w3.org/2000/svg" p-id="1817" xmlns:xlink="http://www.w3.org/1999/xlink" width="200" height="200"><defs><style type="text/css"></style></defs><path d="M512 78.848c-11.264 0-23.552 3.072-33.28 8.704l-317.44 183.296c-20.48 11.776-33.28 34.304-33.28 57.856v366.08c0 24.064 12.8 46.08 33.28 57.856l82.944 47.616c40.448 19.456 54.272 19.968 72.704 19.968 59.904 0 94.208-36.352 94.208-99.328V359.936c0-5.12-4.096-9.216-9.216-9.216h-39.936c-5.632 0-9.728 4.096-9.728 9.216v361.472c0 28.16-29.184 55.808-75.264 32.256L189.44 703.488c-3.072-2.048-4.608-5.632-4.608-9.216V328.704c0-4.096 1.536-7.168 4.608-9.216l317.44-182.784c2.56-1.536 6.656-1.536 9.216 0l317.44 182.784c3.072 1.536 4.608 5.12 4.608 9.216v366.08c0 3.584-1.536 6.656-4.608 9.216l-317.44 183.296c-2.56 1.536-6.656 1.536-9.728 0l-80.384-48.64c-3.584-1.024-6.656-1.536-8.704-0.512-22.528 12.8-27.136 15.36-47.616 22.016-5.12 1.536-13.312 4.608 3.072 13.824l105.984 62.464c10.24 6.144 21.504 9.216 33.28 9.216s23.04-3.072 33.28-9.216l317.44-183.296c20.48-11.776 33.28-34.304 33.28-57.856V328.704c0-24.064-12.8-46.08-33.28-57.856l-317.44-183.296c-9.728-5.632-21.504-8.704-33.28-8.704m85.504 262.656c-90.624 0-144.384 37.888-144.384 101.888 0 68.608 53.76 88.576 140.8 97.28 103.424 10.24 111.616 25.6 111.616 46.08 0 35.328-28.672 50.176-95.232 50.176-84.48 0-102.4-20.992-108.544-62.464-1.024-4.096-4.608-7.68-9.216-7.68h-40.96c-5.12 0-9.216 3.584-9.216 9.216 0 52.736 29.184 116.736 167.936 116.736 100.352 0 157.696-39.424 157.696-108.544 0-68.608-46.08-86.528-143.872-99.84-98.304-12.8-108.544-19.456-108.544-42.496 0-19.456 8.704-45.056 81.408-45.056 64 0 89.088 14.336 98.816 57.856 1.024 4.096 4.608 7.168 9.216 7.168h41.472c2.048 0 4.608-1.024 6.144-3.072 1.536-1.536 3.072-4.096 2.048-6.656-5.632-75.776-55.808-110.592-157.184-110.592z" fill="#2CD609" p-id="1818"></path></svg>