<svg viewBox="0 0 1024 1024">
  <path d="M505.173333 546.133333c-150.186667 0-273.066667-122.88-273.066666-273.066666s122.88-273.066667 273.066666-273.066667 273.066667 122.88 273.066667 273.066667-122.88 273.066667-273.066667 273.066666z m0-491.52C389.12 54.613333 293.546667 150.186667 293.546667 273.066667s95.573333 218.453333 211.626666 218.453333S716.8 395.946667 716.8 273.066667 628.053333 54.613333 505.173333 54.613333z"></path>
  <path d="M436.906667 614.4C266.24 614.4 129.706667 750.933333 129.706667 921.6v6.826667s47.786667 54.613333 334.506666 54.613333c191.146667 0 273.066667-61.44 273.066667-61.44C744.106667 750.933333 600.746667 614.4 436.906667 614.4z"></path>
  <path d="M539.306667 1017.173333c-348.16 0-423.253333-68.266667-430.08-75.093333-6.826667-6.826667-6.826667-13.653333-6.826667-20.48v-6.826667C102.4 682.666667 286.72 498.346667 512 498.346667s409.6 184.32 409.6 416.426666c0 6.826667-6.826667 20.48-13.653333 27.306667-6.826667 0-116.053333 81.92-354.986667 81.92 0-6.826667-13.653333-6.826667-13.653333-6.826667zM157.013333 901.12c27.306667 13.653333 122.88 54.613333 375.466667 54.613333h13.653333c177.493333 0 279.893333-47.786667 307.2-61.44-13.653333-191.146667-163.84-334.506667-354.986666-334.506666s-341.333333 150.186667-341.333334 341.333333z"></path>
</svg>