<?xml version="1.0" encoding="utf-8"?>
<!-- Generator: Adobe Illustrator 19.2.1, SVG Export Plug-In . SVG Version: 6.00 Build 0)  -->
<svg version="1.1" id="Layer_1" xmlns="http://www.w3.org/2000/svg" xmlns:xlink="http://www.w3.org/1999/xlink" x="0px" y="0px"
	 viewBox="0 0 32 32" enable-background="new 0 0 32 32" xml:space="preserve">
<g>
	<path d="M24.5425,7.7551c-1.0491-0.9286-2.6577-0.8354-3.5952,0.2201c-0.9324,1.0529-0.8328,2.6616,0.2188,3.594
		c1.6411,1.4508,2.5811,3.5368,2.5811,5.7236c0,4.2119-3.4263,7.6381-7.6382,7.6381s-7.6382-3.4262-7.6382-7.6381
		c0-2.1594,0.9226-4.2293,2.5288-5.6776c1.0442-0.9411,1.1262-2.551,0.1865-3.5953c-0.9473-1.048-2.5562-1.1263-3.5979-0.1865
		c-2.6753,2.4117-4.2092,5.8591-4.2092,9.4593c0,7.019,5.7109,12.7301,12.73,12.7301s12.73-5.7111,12.73-12.7301
		C28.8389,13.649,27.2727,10.1731,24.5425,7.7551z"/>
	<path d="M16,14c1.1045,0,2-0.8955,2-2V4c0-1.1045-0.8955-2-2-2s-2,0.8955-2,2v8C14,13.1045,14.8955,14,16,14z"/>
</g>
</svg>
