<svg viewBox="0 0 1024 1024" xmlns="http://www.w3.org/2000/svg">
  <path d="M65.828571 643.657143c-14.628571 0-21.942857-14.628571-21.942857-21.942857V409.6c0-14.628571 14.628571-21.942857 21.942857-21.942857s21.942857 14.628571 21.942858 21.942857v204.8c0 14.628571-7.314286 29.257143-21.942858 29.257143"></path>
  <path d="M190.171429 345.234286H29.257143c-14.628571 0-29.257143-14.628571-29.257143-29.257143s14.628571-29.257143 29.257143-29.257143h160.914286c14.628571 0 29.257143 14.628571 29.257142 29.257143s-14.628571 29.257143-29.257142 29.257143M190.171429 746.276571H29.257143c-14.628571 0-29.257143-14.628571-29.257143-29.257142 0-21.942857 14.628571-36.571429 29.257143-36.571429h160.914286c14.628571 0 29.257143 14.628571 29.257142 36.571429 0 14.628571-14.628571 29.257143-29.257142 29.257142"></path>
  <path d="M709.485714 343.771429H299.885714c-14.628571 0-29.257143-14.628571-29.257143-29.257143s14.628571-29.257143 29.257143-29.257143h402.285715c14.628571 0 29.257143 14.628571 29.257142 29.257143 7.314286 14.628571-7.314286 29.257143-21.942857 29.257143M709.485714 548.571429H299.885714c-14.628571 0-29.257143-14.628571-29.257143-36.571429 0-14.628571 14.628571-29.257143 29.257143-29.257143h402.285715c14.628571 0 29.257143 14.628571 29.257142 29.257143 7.314286 21.942857-7.314286 36.571429-21.942857 36.571429M709.485714 746.057143H299.885714c-14.628571 0-29.257143-14.628571-29.257143-29.257143s14.628571-29.257143 29.257143-29.257143h402.285715c14.628571 0 29.257143 14.628571 29.257142 29.257143 7.314286 14.628571-7.314286 29.257143-21.942857 29.257143"></path>
  <path d="M921.6 906.971429c0 36.571429-29.257143 58.514286-58.514286 58.514285H146.285714c-36.571429 0-58.514286-29.257143-58.514285-58.514285V804.571429c0-14.628571-14.628571-21.942857-21.942858-21.942858s-29.257143 7.314286-29.257142 21.942858v102.4c0 58.514286 51.2 109.714286 109.714285 109.714285h709.485715c58.514286 0 109.714286-51.2 109.714285-109.714285V607.085714c-14.628571 7.314286-29.257143 14.628571-51.2 21.942857v277.942858z"></path>
  <path d="M972.068571 117.174857c0-58.514286-51.2-109.714286-109.714285-109.714286H152.868571C87.04 7.460571 35.84 58.660571 35.84 117.174857V219.574857c0 14.628571 14.628571 21.942857 21.942857 21.942857s29.257143-7.314286 29.257143-21.942857V117.174857c0-36.571429 29.257143-58.514286 58.514286-58.514286h709.485714c36.571429 0 58.514286 29.257143 58.514286 58.514286v285.257143c21.942857 0 36.571429 7.314286 51.2 21.942857V117.174857z"></path>
  <path d="M919.186286 569.563429h-14.628572C867.986286 569.563429 846.043429 540.306286 846.043429 511.049143s29.257143-58.514286 58.514285-58.514286h14.628572c29.257143 7.314286 51.2 29.257143 51.2 58.514286s-21.942857 58.514286-51.2 58.514286m51.2-146.285715C955.757714 408.649143 941.129143 401.334857 919.186286 401.334857h-14.628572C846.043429 401.334857 794.843429 452.534857 794.843429 511.049143s51.2 109.714286 109.714285 109.714286h14.628572c21.942857 0 36.571429-7.314286 51.2-14.628572 29.257143-21.942857 51.2-51.2 51.2-95.085714 0-36.571429-21.942857-73.142857-51.2-87.771429"></path>
</svg>