<svg viewBox="0 0 1024 1024">
  <path d="M810.496 938.496H213.504c-17.408 0-33.792-3.584-49.664-10.24-15.36-6.144-29.184-15.872-40.448-27.648-11.776-11.776-20.992-25.6-27.648-40.448-6.656-15.872-10.24-32.768-10.24-49.664V213.504c0-17.408 3.584-33.792 10.24-49.664 6.144-15.36 15.872-29.184 27.648-40.448 11.776-11.776 25.6-20.992 40.448-27.648 15.872-6.656 32.256-10.24 49.664-10.24h597.504c17.408 0 33.792 3.584 49.664 10.24 15.36 6.144 29.184 15.872 40.448 27.648 11.776 11.776 20.992 25.6 27.648 40.448 6.656 15.872 10.24 32.768 10.24 49.664v106.496c0 23.552-18.944 42.496-42.496 42.496s-42.496-18.944-42.496-42.496V213.504c0-5.632-1.024-11.264-3.584-16.384-2.048-5.12-5.12-9.728-9.216-13.312-4.096-4.096-8.704-7.168-13.824-9.216-5.12-2.048-10.752-3.072-16.384-3.072H213.504c-5.632 0-11.264 1.024-16.384 3.072-5.12 2.048-9.728 5.12-13.824 9.216-4.096 4.096-7.168 8.704-9.216 13.824-2.048 5.12-3.584 10.752-3.584 16.384v597.504c0 5.632 1.024 11.264 3.584 16.384 2.048 5.12 5.12 9.728 9.216 13.312 4.096 4.096 8.704 7.168 13.824 9.216 5.12 2.048 10.752 3.072 16.384 3.072h597.504c5.632 0 11.264-1.024 16.384-3.072 5.12-2.048 9.728-5.12 13.824-9.216 4.096-4.096 7.168-8.704 9.216-13.824 2.048-5.12 3.584-10.752 3.584-16.384v-106.496c0-23.552 18.944-42.496 42.496-42.496s42.496 18.944 42.496 42.496v106.496c0 17.408-3.584 33.792-10.24 49.664-6.144 15.36-15.872 29.184-27.648 40.448-11.776 11.776-25.6 20.992-40.448 27.648-15.872 6.656-32.768 9.728-50.176 9.728z"></path>
  <path d="M768 682.496c-10.752 0-22.016-4.096-30.208-12.288-16.896-16.896-16.896-43.52 0-60.416l97.792-97.792-97.792-97.792c-16.896-16.896-16.896-43.52 0-60.416 16.896-16.896 43.52-16.896 60.416 0l128 128c16.896 16.896 16.896 43.52 0 60.416l-128 128c-8.192 8.192-19.456 12.288-30.208 12.288z"></path>
  <path d="M896 554.496h-384c-23.552 0-42.496-18.944-42.496-42.496s18.944-42.496 42.496-42.496h384c23.552 0 42.496 18.944 42.496 42.496 0 23.552-18.944 42.496-42.496 42.496z"></path>
</svg>