<svg viewBox="0 0 1024 1024" xmlns="http://www.w3.org/2000/svg">
  <path d="M65.828571 117.028571v519.314286s7.314286 234.057143 453.485715 365.714286c0 0 358.4-73.142857 438.857143-358.4V117.028571L519.314286 36.571429 65.828571 117.028571z"></path>
  <path d="M95.085714 629.028571c0 7.314286 7.314286 58.514286 58.514286 131.657143 58.514286 65.828571 160.914286 153.6 373.028571 212.114286 51.2-7.314286 351.085714-87.771429 416.914286-329.142857V138.971429L533.942857 51.2l-438.857143 80.457143v497.371428M519.314286 1024C58.514286 906.971429 36.571429 650.971429 36.571429 636.342857V87.771429L519.314286 0 987.428571 87.771429v548.571428c-29.257143 117.028571-124.342857 219.428571-256 292.571429-102.4 73.142857-197.485714 95.085714-212.114285 95.085714"></path>
  <path d="M512 468.114286h380.342857v175.542857s-21.942857 190.171429-380.342857 292.571428V468.114286zM131.657143 160.914286l380.342857-73.142857v380.342857H131.657143V160.914286z"></path>
</svg>