<svg viewBox="0 0 1024 1024" xmlns="http://www.w3.org/2000/svg">
  <path d="M928.914286 908.434286c0 36.571429-29.257143 58.514286-65.828572 58.514285H153.6c-36.571429 0-65.828571-29.257143-65.828571-58.514285V425.691429c0-36.571429 29.257143-58.514286 65.828571-58.514286h716.8c36.571429 0 65.828571 29.257143 65.828571 58.514286v482.742857zM226.742857 191.634286c0-73.142857 58.514286-131.657143 138.971429-131.657143h292.571428c73.142857 0 138.971429 58.514286 138.971429 131.657143v117.028571H226.742857V191.634286z m643.657143 117.028571H841.142857V191.634286C841.142857 89.234286 753.371429 8.777143 650.971429 8.777143h-292.571429C256 8.777143 168.228571 89.234286 168.228571 191.634286v124.342857h-14.628571C87.771429 308.662857 36.571429 359.862857 36.571429 425.691429v482.742857c0 58.514286 51.2 109.714286 117.028571 109.714285h716.8c65.828571 0 117.028571-51.2 117.028571-109.714285V425.691429c0-65.828571-58.514286-117.028571-117.028571-117.028572z"></path>
  <path d="M343.771429 650.971429c0-80.457143 65.828571-146.285714 146.285714-146.285715s146.285714 65.828571 146.285714 146.285715-65.828571 146.285714-146.285714 146.285714-146.285714-65.828571-146.285714-146.285714m373.028571 182.857142l-73.142857-73.142857c21.942857-29.257143 36.571429-73.142857 36.571428-109.714285 0-102.4-87.771429-190.171429-197.485714-190.171429S292.571429 548.571429 292.571429 650.971429c0 102.4 87.771429 190.171429 197.485714 190.171428 43.885714 0 87.771429-14.628571 124.342857-43.885714l73.142857 73.142857c7.314286 7.314286 7.314286 7.314286 14.628572 7.314286s14.628571 0 14.628571-7.314286c7.314286-14.628571 7.314286-29.257143 0-36.571429"></path>
</svg>