<svg xmlns="http://www.w3.org/2000/svg" viewBox="0 0 15 15">
<g fill-rule="evenodd">
  <path fill="#ffab2e" d="M10.925 14.302c.173.13.408.13.58-.002.174-.13.244-.362.175-.572l-1.323-4.296 3.435-2.456c.175-.13.25-.36.185-.572-.064-.212-.253-.357-.468-.36H9.275L7.96 1.754c-.064-.21-.21-.354-.46-.354-.14 0-1.027 3.53-.988 6.32.04 2.788.98 3.85.98 3.85l3.433 2.732z"></path>
  <path fill="#ffab2e" d="M7.5 1.4c-.25 0-.41.144-.474.354l-1.318 4.29H1.49c-.214.003-.403.148-.467.36-.065.212.01.442.185.572l3.42 2.463-1.307 4.286c-.066.21.004.44.176.572.172.13.407.132.58.003l3.42-2.734L7.5 1.4z"></path>
</g>
</svg>